<svg xmlns="http://www.w3.org/2000/svg" xmlns:xlink="http://www.w3.org/1999/xlink" width="40" zoomAndPan="magnify" viewBox="0 0 30 30.000001" height="40" preserveAspectRatio="xMidYMid meet" version="1.0"><defs><clipPath id="a2f258c60d"><path d="M 4.019531 0 L 25.792969 0 L 25.792969 29.03125 L 4.019531 29.03125 Z M 4.019531 0 " clip-rule="nonzero"/></clipPath></defs><g clip-path="url(#a2f258c60d)"><path fill="#000000" d="M 25.785156 26.324219 L 22.375 7.925781 C 22.375 7.921875 22.375 7.914062 22.367188 7.910156 C 22.367188 7.902344 22.367188 7.902344 22.363281 7.898438 C 22.359375 7.890625 22.359375 7.878906 22.351562 7.875 C 22.351562 7.875 22.351562 7.867188 22.351562 7.867188 C 22.347656 7.859375 22.339844 7.851562 22.335938 7.847656 C 22.335938 7.847656 22.328125 7.847656 22.328125 7.839844 C 22.324219 7.835938 22.316406 7.828125 22.3125 7.824219 L 22.304688 7.816406 C 22.300781 7.8125 22.292969 7.804688 22.28125 7.804688 L 22.277344 7.804688 C 22.269531 7.800781 22.257812 7.800781 22.253906 7.800781 L 22.25 7.800781 C 22.242188 7.800781 22.230469 7.800781 22.226562 7.800781 L 18.753906 7.800781 L 18.582031 3.578125 C 18.496094 1.574219 16.933594 0.00390625 15.027344 0.00390625 C 14.171875 0.00390625 13.339844 0.328125 12.707031 0.910156 C 12.058594 1.507812 11.636719 2.308594 11.515625 3.183594 L 10.859375 7.800781 L 7.917969 7.800781 C 7.84375 7.800781 7.773438 7.851562 7.757812 7.933594 L 4.039062 26.757812 C 4.019531 26.847656 4.074219 26.933594 4.160156 26.949219 C 4.164062 26.949219 4.171875 26.949219 4.175781 26.949219 L 20.734375 29.03125 L 20.75 29.03125 C 20.761719 29.03125 20.773438 29.03125 20.785156 29.023438 L 20.796875 29.023438 C 20.808594 29.023438 20.816406 29.019531 20.824219 29.011719 L 20.832031 29.011719 L 25.695312 26.5 C 25.761719 26.46875 25.792969 26.394531 25.785156 26.324219 Z M 11.839844 3.226562 C 12.082031 1.542969 13.421875 0.320312 15.027344 0.320312 C 16.761719 0.320312 18.179688 1.761719 18.253906 3.589844 L 18.425781 7.792969 L 11.183594 7.792969 Z M 8.050781 8.117188 L 10.8125 8.117188 L 10.421875 10.859375 C 10.246094 10.910156 10.125 11.078125 10.125 11.269531 C 10.113281 11.496094 10.277344 11.6875 10.503906 11.699219 C 10.726562 11.710938 10.917969 11.542969 10.929688 11.316406 C 10.929688 11.300781 10.929688 11.289062 10.929688 11.269531 C 10.929688 11.125 10.859375 10.992188 10.738281 10.910156 L 11.136719 8.117188 L 18.429688 8.117188 L 18.546875 10.886719 C 18.40625 10.964844 18.320312 11.109375 18.320312 11.269531 C 18.308594 11.496094 18.488281 11.683594 18.707031 11.695312 C 18.933594 11.707031 19.117188 11.527344 19.128906 11.304688 C 19.128906 11.292969 19.128906 11.28125 19.128906 11.269531 C 19.128906 11.097656 19.023438 10.941406 18.867188 10.875 L 18.753906 8.117188 L 22.03125 8.117188 L 21.015625 22.71875 L 20.605469 28.679688 L 4.390625 26.648438 Z M 20.933594 28.589844 L 21.394531 21.941406 L 22.28125 9.238281 L 25.4375 26.265625 Z M 20.933594 28.589844 " fill-opacity="1" fill-rule="nonzero"/></g></svg>