<svg xmlns="http://www.w3.org/2000/svg" xmlns:xlink="http://www.w3.org/1999/xlink" width="40" zoomAndPan="magnify" viewBox="0 0 30 30.000001" height="40" preserveAspectRatio="xMidYMid meet" version="1.0"><defs><clipPath id="62ed2340c1"><path d="M 4.03125 0.871094 L 26.53125 0.871094 L 26.53125 28.453125 L 4.03125 28.453125 Z M 4.03125 0.871094 " clip-rule="nonzero"/></clipPath></defs><g clip-path="url(#62ed2340c1)"><path fill="#000000" d="M 26.207031 9.777344 C 26.019531 9.5625 25.785156 9.453125 25.503906 9.453125 L 21.769531 9.453125 L 21.769531 7.558594 C 21.769531 7.125 21.726562 6.691406 21.644531 6.265625 C 21.558594 5.839844 21.433594 5.425781 21.269531 5.023438 C 21.105469 4.621094 20.90625 4.238281 20.667969 3.875 C 20.429688 3.511719 20.15625 3.179688 19.855469 2.871094 C 19.550781 2.5625 19.222656 2.289062 18.863281 2.046875 C 18.507812 1.804688 18.132812 1.601562 17.734375 1.433594 C 17.339844 1.265625 16.929688 1.140625 16.507812 1.058594 C 16.085938 0.972656 15.664062 0.929688 15.234375 0.929688 C 14.804688 0.929688 14.378906 0.972656 13.957031 1.058594 C 13.539062 1.140625 13.128906 1.265625 12.734375 1.433594 C 12.335938 1.601562 11.960938 1.804688 11.601562 2.046875 C 11.246094 2.289062 10.914062 2.5625 10.613281 2.871094 C 10.308594 3.179688 10.039062 3.511719 9.800781 3.875 C 9.5625 4.238281 9.359375 4.621094 9.195312 5.023438 C 9.03125 5.425781 8.90625 5.839844 8.824219 6.265625 C 8.738281 6.691406 8.699219 7.125 8.699219 7.558594 L 8.699219 9.453125 L 4.964844 9.453125 C 4.828125 9.453125 4.699219 9.480469 4.578125 9.539062 C 4.453125 9.59375 4.347656 9.675781 4.261719 9.777344 C 4.171875 9.882812 4.109375 10 4.070312 10.128906 C 4.03125 10.261719 4.019531 10.394531 4.039062 10.53125 L 6.375 27.578125 C 6.40625 27.8125 6.507812 28.003906 6.683594 28.160156 C 6.859375 28.316406 7.066406 28.394531 7.296875 28.394531 L 23.167969 28.394531 C 23.402344 28.394531 23.605469 28.316406 23.78125 28.160156 C 23.957031 28.003906 24.0625 27.8125 24.09375 27.578125 L 26.425781 10.53125 C 26.464844 10.246094 26.394531 9.996094 26.207031 9.777344 Z M 10.566406 7.558594 C 10.566406 7.246094 10.59375 6.941406 10.65625 6.636719 C 10.714844 6.328125 10.804688 6.035156 10.921875 5.746094 C 11.039062 5.460938 11.183594 5.1875 11.351562 4.929688 C 11.523438 4.667969 11.714844 4.429688 11.933594 4.210938 C 12.148438 3.992188 12.386719 3.792969 12.640625 3.621094 C 12.894531 3.449219 13.164062 3.304688 13.445312 3.183594 C 13.730469 3.066406 14.023438 2.976562 14.324219 2.914062 C 14.625 2.855469 14.925781 2.824219 15.234375 2.824219 C 15.539062 2.824219 15.84375 2.855469 16.144531 2.914062 C 16.445312 2.976562 16.738281 3.066406 17.019531 3.183594 C 17.304688 3.304688 17.570312 3.449219 17.828125 3.621094 C 18.082031 3.792969 18.316406 3.992188 18.535156 4.210938 C 18.75 4.429688 18.945312 4.667969 19.113281 4.929688 C 19.285156 5.1875 19.429688 5.460938 19.546875 5.746094 C 19.664062 6.035156 19.753906 6.328125 19.8125 6.636719 C 19.871094 6.941406 19.902344 7.246094 19.902344 7.558594 L 19.902344 9.453125 L 10.566406 9.453125 Z M 22.355469 26.5 L 8.109375 26.5 L 6.035156 11.347656 L 8.699219 11.347656 L 8.699219 12.292969 C 8.699219 12.554688 8.789062 12.777344 8.972656 12.964844 C 9.152344 13.148438 9.375 13.242188 9.632812 13.242188 C 9.890625 13.242188 10.109375 13.148438 10.292969 12.964844 C 10.472656 12.777344 10.566406 12.554688 10.566406 12.292969 L 10.566406 11.347656 L 19.902344 11.347656 L 19.902344 12.292969 C 19.902344 12.554688 19.992188 12.777344 20.175781 12.964844 C 20.355469 13.148438 20.578125 13.242188 20.835938 13.242188 C 21.09375 13.242188 21.3125 13.148438 21.496094 12.964844 C 21.675781 12.777344 21.769531 12.554688 21.769531 12.292969 L 21.769531 11.347656 L 24.429688 11.347656 Z M 22.355469 26.5 " fill-opacity="1" fill-rule="nonzero"/></g></svg>