<svg xmlns="http://www.w3.org/2000/svg" xmlns:xlink="http://www.w3.org/1999/xlink" width="40" zoomAndPan="magnify" viewBox="0 0 30 30.000001" height="40" preserveAspectRatio="xMidYMid meet" version="1.0"><defs><clipPath id="d96c88d165"><path d="M 4.601562 0 L 26.375 0 L 26.375 29.03125 L 4.601562 29.03125 Z M 4.601562 0 " clip-rule="nonzero"/></clipPath></defs><g clip-path="url(#d96c88d165)"><path fill="#000000" d="M 26.367188 7.375 C 26.367188 7.367188 26.367188 7.363281 26.367188 7.355469 C 26.367188 7.351562 26.367188 7.34375 26.359375 7.34375 C 26.359375 7.339844 26.359375 7.332031 26.355469 7.328125 C 26.355469 7.320312 26.347656 7.316406 26.347656 7.316406 C 26.347656 7.308594 26.34375 7.304688 26.34375 7.296875 C 26.335938 7.292969 26.335938 7.292969 26.335938 7.285156 L 26.308594 7.257812 L 26.304688 7.257812 C 26.296875 7.253906 26.292969 7.253906 26.292969 7.246094 L 26.28125 7.242188 L 26.261719 7.234375 L 26.25 7.230469 L 26.234375 7.230469 C 26.230469 7.230469 26.222656 7.230469 26.21875 7.230469 L 22.160156 7.230469 C 21.851562 4.464844 20.6875 0 16.484375 0 C 15.328125 0 14.402344 0.335938 13.648438 0.875 C 12.820312 1.097656 12.074219 1.542969 11.484375 2.164062 C 10.148438 3.546875 9.550781 5.671875 9.277344 7.242188 L 6.558594 7.242188 C 6.550781 7.242188 6.546875 7.242188 6.546875 7.242188 L 6.535156 7.246094 C 6.53125 7.246094 6.523438 7.246094 6.519531 7.253906 L 6.507812 7.257812 L 6.496094 7.265625 L 6.484375 7.269531 L 6.472656 7.28125 L 6.464844 7.292969 C 6.460938 7.296875 6.460938 7.304688 6.453125 7.308594 L 5.953125 8.105469 L 4.757812 8.105469 C 4.671875 8.105469 4.609375 8.175781 4.609375 8.257812 L 4.609375 28.882812 C 4.609375 28.96875 4.679688 29.03125 4.757812 29.03125 L 24.402344 29.03125 C 24.414062 29.03125 24.425781 29.03125 24.4375 29.027344 L 24.445312 29.027344 C 24.453125 29.019531 24.464844 29.019531 24.46875 29.015625 L 24.480469 29.007812 C 24.492188 29.003906 24.5 28.996094 24.511719 28.984375 L 24.515625 28.980469 C 24.523438 28.972656 24.527344 28.960938 24.535156 28.949219 C 24.535156 28.949219 24.535156 28.949219 24.539062 28.945312 L 25.28125 27.527344 L 26.210938 27.558594 C 26.25 27.558594 26.292969 27.539062 26.320312 27.515625 C 26.347656 27.488281 26.367188 27.445312 26.367188 27.40625 L 26.367188 7.375 C 26.367188 7.378906 26.367188 7.378906 26.367188 7.375 Z M 25.039062 27.34375 L 24.554688 28.261719 L 24.554688 8.511719 L 25.039062 8.773438 Z M 25.152344 8.488281 L 24.480469 8.125 C 24.457031 8.113281 24.4375 8.105469 24.414062 8.105469 L 20.699219 8.105469 C 20.683594 7.925781 20.660156 7.734375 20.632812 7.542969 L 25.914062 7.542969 Z M 13.78125 1.15625 C 14.179688 1.058594 14.582031 1.003906 14.988281 1.011719 C 16.292969 1.011719 17.382812 1.46875 18.246094 2.375 C 19.449219 3.640625 20.003906 5.578125 20.269531 7.234375 L 10.972656 7.234375 C 11.144531 5.953125 11.523438 4.199219 12.355469 2.792969 C 12.757812 2.101562 13.234375 1.554688 13.78125 1.15625 Z M 20.308594 7.535156 C 20.339844 7.726562 20.363281 7.921875 20.378906 8.101562 L 9.460938 8.101562 C 9.484375 7.921875 9.511719 7.726562 9.539062 7.535156 Z M 16.484375 0.300781 C 18.242188 0.300781 19.613281 1.136719 20.5625 2.785156 C 21.371094 4.199219 21.71875 5.953125 21.867188 7.234375 L 20.585938 7.234375 C 20.34375 5.671875 19.78125 3.546875 18.472656 2.164062 C 17.558594 1.195312 16.382812 0.703125 14.992188 0.703125 C 14.828125 0.703125 14.667969 0.707031 14.503906 0.726562 C 15.121094 0.433594 15.796875 0.289062 16.484375 0.300781 Z M 11.703125 2.375 C 12.074219 1.984375 12.515625 1.660156 13 1.433594 C 11.496094 2.984375 10.898438 5.457031 10.660156 7.234375 L 9.59375 7.234375 C 9.886719 5.578125 10.476562 3.640625 11.703125 2.375 Z M 6.660156 7.535156 L 9.230469 7.535156 C 9.203125 7.726562 9.171875 7.921875 9.148438 8.101562 L 6.304688 8.101562 Z M 24.25 28.722656 L 4.914062 28.722656 L 4.914062 8.40625 L 9.117188 8.40625 C 9.050781 8.984375 9.027344 9.476562 9.019531 9.824219 C 8.714844 9.90625 8.527344 10.21875 8.609375 10.527344 C 8.691406 10.835938 9 11.019531 9.304688 10.9375 C 9.609375 10.859375 9.792969 10.542969 9.714844 10.238281 C 9.660156 10.039062 9.511719 9.882812 9.316406 9.832031 C 9.328125 9.480469 9.355469 8.988281 9.417969 8.40625 L 20.40625 8.40625 C 20.460938 8.988281 20.476562 9.480469 20.480469 9.832031 C 20.175781 9.917969 20 10.230469 20.078125 10.539062 C 20.164062 10.847656 20.476562 11.027344 20.78125 10.945312 C 21.085938 10.859375 21.261719 10.542969 21.183594 10.238281 C 21.132812 10.039062 20.976562 9.886719 20.78125 9.832031 C 20.773438 9.480469 20.757812 8.988281 20.707031 8.40625 L 24.242188 8.40625 Z M 9.011719 10.386719 C 9.011719 10.476562 9.082031 10.539062 9.167969 10.539062 C 9.253906 10.539062 9.316406 10.46875 9.316406 10.382812 C 9.316406 10.375 9.316406 10.300781 9.316406 10.160156 C 9.4375 10.25 9.472656 10.417969 9.386719 10.539062 C 9.300781 10.660156 9.132812 10.695312 9.011719 10.609375 C 8.890625 10.519531 8.855469 10.351562 8.941406 10.230469 C 8.960938 10.203125 8.984375 10.179688 9.011719 10.160156 C 9.011719 10.304688 9.011719 10.386719 9.011719 10.386719 Z M 20.90625 10.386719 C 20.90625 10.539062 20.785156 10.660156 20.644531 10.660156 C 20.492188 10.660156 20.371094 10.539062 20.371094 10.394531 C 20.371094 10.304688 20.414062 10.21875 20.488281 10.167969 C 20.488281 10.300781 20.480469 10.375 20.480469 10.382812 C 20.476562 10.46875 20.546875 10.539062 20.625 10.539062 L 20.632812 10.539062 C 20.710938 10.539062 20.78125 10.476562 20.78125 10.394531 C 20.78125 10.386719 20.785156 10.304688 20.785156 10.160156 C 20.863281 10.214844 20.90625 10.292969 20.90625 10.386719 Z M 25.34375 27.230469 L 25.34375 8.738281 L 26.066406 7.828125 L 26.066406 27.261719 Z M 25.34375 27.230469 " fill-opacity="1" fill-rule="nonzero"/></g></svg>