<svg xmlns="http://www.w3.org/2000/svg" xmlns:xlink="http://www.w3.org/1999/xlink" width="40" zoomAndPan="magnify" viewBox="0 0 30 30.000001" height="40" preserveAspectRatio="xMidYMid meet" version="1.0"><defs><g/><clipPath id="dfba774156"><path d="M 0.484375 0 L 29.515625 0 L 29.515625 29.03125 L 0.484375 29.03125 Z M 0.484375 0 " clip-rule="nonzero"/></clipPath></defs><g clip-path="url(#dfba774156)"><path fill="#ffffff" d="M 0.484375 0 L 29.515625 0 L 29.515625 29.03125 L 0.484375 29.03125 Z M 0.484375 0 " fill-opacity="1" fill-rule="nonzero"/><path fill="#ffffff" d="M 0.484375 0 L 29.515625 0 L 29.515625 29.03125 L 0.484375 29.03125 Z M 0.484375 0 " fill-opacity="1" fill-rule="nonzero"/></g><g fill="#000000" fill-opacity="1"><g transform="translate(5.799159, 11.669088)"><g><path d="M 1.832031 0 C 1.746094 -0.355469 1.691406 -1.515625 1.730469 -2.792969 L 4.300781 -2.792969 C 4.546875 -1.945312 4.808594 -1.0625 5.128906 0 L 6.308594 0 C 5.515625 -2.621094 5.039062 -4.175781 4.261719 -6.738281 C 4.101562 -7.269531 3.792969 -7.769531 3.230469 -7.769531 C 2.667969 -7.769531 2.363281 -7.269531 2.199219 -6.738281 C 1.421875 -4.175781 0.953125 -2.621094 0.152344 0 Z M 1.738281 -2.90625 C 1.808594 -4.855469 2.085938 -7.023438 2.777344 -7.023438 C 2.945312 -7.023438 3.03125 -6.90625 3.085938 -6.738281 C 3.554688 -5.261719 3.898438 -4.117188 4.261719 -2.90625 Z M 1.738281 -2.90625 "/></g></g></g><g fill="#000000" fill-opacity="1"><g transform="translate(12.260284, 11.669088)"><g><path d="M 1.652344 0 L 1.652344 -7.578125 L 3.300781 -7.578125 C 4.207031 -7.578125 4.570312 -7.023438 4.570312 -6.300781 C 4.570312 -4.285156 2.246094 -4.191406 2.246094 -3.445312 C 2.246094 -2.953125 3.230469 -1.429688 3.875 -0.585938 C 4.277344 -0.0625 4.300781 0 4.753906 0 L 6.023438 0 L 6.023438 -0.046875 C 5.46875 -0.046875 3.136719 -3.4375 3.136719 -3.96875 C 3.136719 -4.4375 5.683594 -4.515625 5.683594 -6.367188 C 5.683594 -7 5.277344 -7.691406 4.4375 -7.691406 L 0.539062 -7.691406 L 0.539062 0 Z M 1.652344 0 "/></g></g></g><g fill="#000000" fill-opacity="1"><g transform="translate(18.282976, 11.669088)"><g><path d="M 0.230469 -6.429688 C 0.738281 -6.945312 1.707031 -7.515625 2.398438 -7.570312 L 2.398438 0 L 3.515625 0 L 3.515625 -7.570312 C 4.207031 -7.515625 5.175781 -6.945312 5.683594 -6.429688 L 5.683594 -7.691406 L 0.230469 -7.691406 Z M 0.230469 -6.429688 "/></g></g></g><g fill="#000000" fill-opacity="1"><g transform="translate(2.599507, 22.383764)"><g><path d="M 2.675781 0.078125 C 4.222656 0.078125 5.652344 -0.847656 5.652344 -2.347656 C 5.652344 -3.792969 4.460938 -4.515625 2.730469 -4.636719 C 1.855469 -4.699219 0.445312 -4.617188 0.445312 -5.5 C 0.445312 -6.347656 1.636719 -6.667969 2.761719 -6.667969 C 3.746094 -6.667969 4.769531 -6.40625 5.214844 -6.085938 L 5.53125 -7.253906 C 5.054688 -7.636719 4.023438 -7.769531 3.230469 -7.769531 C 1.015625 -7.769531 0.316406 -6.539062 0.316406 -5.59375 C 0.316406 -4.332031 0.953125 -3.609375 2.898438 -3.277344 C 4.015625 -3.085938 5.507812 -3.046875 5.507812 -2.128906 C 5.507812 -1.160156 4.085938 -0.984375 3.246094 -0.984375 C 2.152344 -0.984375 1.4375 -1.371094 0.617188 -1.875 L 0.152344 -0.808594 C 0.601562 -0.363281 1.628906 0.078125 2.675781 0.078125 Z M 2.675781 0.078125 "/></g></g></g><g fill="#000000" fill-opacity="1"><g transform="translate(8.406828, 22.383764)"><g><path d="M 0.539062 0 L 1.652344 0 L 1.652344 -3.722656 L 4.867188 -3.722656 L 4.867188 0 L 5.984375 0 L 5.984375 -7.691406 L 4.867188 -7.691406 L 4.867188 -3.847656 L 1.652344 -3.847656 L 1.652344 -7.691406 L 0.539062 -7.691406 Z M 0.539062 0 "/></g></g></g><g fill="#000000" fill-opacity="1"><g transform="translate(14.929488, 22.383764)"><g><path d="M 3.347656 0.078125 C 5.167969 0.078125 6.382812 -1.492188 6.382812 -3.847656 C 6.382812 -6.199219 5.167969 -7.769531 3.347656 -7.769531 C 1.515625 -7.769531 0.308594 -6.199219 0.308594 -3.847656 C 0.308594 -1.492188 1.515625 0.078125 3.347656 0.078125 Z M 1.507812 -3.855469 C 1.507812 -6.136719 2.238281 -7.660156 3.339844 -7.660156 C 4.445312 -7.660156 5.183594 -6.136719 5.183594 -3.855469 C 5.183594 -1.5625 4.445312 -0.0390625 3.339844 -0.0390625 C 2.238281 -0.0390625 1.507812 -1.5625 1.507812 -3.855469 Z M 1.507812 -3.855469 "/></g></g></g><g fill="#000000" fill-opacity="1"><g transform="translate(21.621368, 22.383764)"><g><path d="M 1.652344 0 L 1.652344 -3.109375 L 3.015625 -3.109375 C 4.617188 -3.109375 5.46875 -4.277344 5.46875 -5.398438 C 5.46875 -6.523438 4.683594 -7.691406 3.382812 -7.691406 L 0.539062 -7.691406 L 0.539062 0 Z M 2.308594 -7.59375 C 3.675781 -7.59375 4.355469 -6.476562 4.355469 -5.382812 C 4.355469 -4.316406 3.660156 -3.222656 2.308594 -3.222656 L 1.652344 -3.222656 L 1.652344 -7.59375 Z M 2.308594 -7.59375 "/></g></g></g></svg>