<svg xmlns="http://www.w3.org/2000/svg" xmlns:xlink="http://www.w3.org/1999/xlink" width="160" zoomAndPan="magnify" viewBox="0 0 120 60" height="80" preserveAspectRatio="xMidYMid meet" version="1.0"><defs><g/><clipPath id="e1b5853280"><path d="M 7.207031 6 L 112.957031 6 L 112.957031 6.75 L 7.207031 6.75 Z M 7.207031 6 " clip-rule="nonzero"/></clipPath><clipPath id="0f136c15f4"><path d="M 7.207031 53.34375 L 112.957031 53.34375 L 112.957031 54.09375 L 7.207031 54.09375 Z M 7.207031 53.34375 " clip-rule="nonzero"/></clipPath></defs><g clip-path="url(#e1b5853280)"><path fill="#231f20" d="M 7.207031 6.03125 L 112.957031 6.03125 L 112.957031 6.71875 L 7.207031 6.71875 Z M 7.207031 6.03125 " fill-opacity="1" fill-rule="nonzero"/></g><g clip-path="url(#0f136c15f4)"><path fill="#231f20" d="M 7.207031 53.371094 L 112.957031 53.371094 L 112.957031 54.0625 L 7.207031 54.0625 Z M 7.207031 53.371094 " fill-opacity="1" fill-rule="nonzero"/></g><g fill="#000000" fill-opacity="1"><g transform="translate(1.165795, 38.250002)"><g><path d="M 16.5 -0.234375 L 16.6875 -0.234375 L 16.6875 0 L 11.5 0 L 11.5 -0.234375 L 11.703125 -0.234375 C 12.023438 -0.234375 12.265625 -0.335938 12.421875 -0.546875 C 12.585938 -0.753906 12.671875 -0.945312 12.671875 -1.125 C 12.671875 -1.3125 12.640625 -1.5 12.578125 -1.6875 L 11.109375 -5.609375 L 4.875 -5.609375 L 3.34375 -1.65625 C 3.28125 -1.476562 3.25 -1.300781 3.25 -1.125 C 3.25 -0.945312 3.328125 -0.753906 3.484375 -0.546875 C 3.648438 -0.335938 3.894531 -0.234375 4.21875 -0.234375 L 4.421875 -0.234375 L 4.421875 0 L -0.21875 0 L -0.21875 -0.234375 L 0 -0.234375 C 0.375 -0.234375 0.742188 -0.351562 1.109375 -0.59375 C 1.484375 -0.84375 1.785156 -1.207031 2.015625 -1.6875 L 7.234375 -14.09375 C 7.804688 -15.332031 8.09375 -16.125 8.09375 -16.46875 L 8.296875 -16.46875 L 14.46875 -1.6875 C 14.6875 -1.207031 14.976562 -0.84375 15.34375 -0.59375 C 15.71875 -0.351562 16.101562 -0.234375 16.5 -0.234375 Z M 5.15625 -6.296875 L 10.828125 -6.296875 L 8.0625 -13.703125 Z M 5.15625 -6.296875 "/></g></g></g><g fill="#000000" fill-opacity="1"><g transform="translate(18.030897, 38.250002)"><g><path d="M 6.140625 -15.421875 L 4.65625 -15.421875 L 4.65625 -1.6875 C 4.65625 -1.28125 4.796875 -0.9375 5.078125 -0.65625 C 5.367188 -0.375 5.722656 -0.234375 6.140625 -0.234375 L 6.40625 -0.234375 L 6.4375 0 L 1.390625 0 L 1.390625 -0.234375 L 1.6875 -0.234375 C 2.082031 -0.234375 2.421875 -0.367188 2.703125 -0.640625 C 2.992188 -0.921875 3.144531 -1.257812 3.15625 -1.65625 L 3.15625 -14.453125 C 3.144531 -14.859375 2.992188 -15.203125 2.703125 -15.484375 C 2.421875 -15.765625 2.082031 -15.90625 1.6875 -15.90625 L 1.390625 -15.90625 L 1.390625 -16.140625 L 7.609375 -16.140625 C 9.003906 -16.140625 10.101562 -15.75 10.90625 -14.96875 C 11.707031 -14.195312 12.109375 -13.191406 12.109375 -11.953125 C 12.109375 -10.710938 11.726562 -9.644531 10.96875 -8.75 C 10.207031 -7.851562 9.28125 -7.40625 8.1875 -7.40625 C 8.414062 -7.289062 8.6875 -7.078125 9 -6.765625 C 9.320312 -6.453125 9.601562 -6.125 9.84375 -5.78125 C 11.164062 -3.894531 12.023438 -2.734375 12.421875 -2.296875 C 12.828125 -1.859375 13.113281 -1.554688 13.28125 -1.390625 C 13.445312 -1.234375 13.628906 -1.078125 13.828125 -0.921875 C 14.035156 -0.765625 14.238281 -0.640625 14.4375 -0.546875 C 14.882812 -0.335938 15.359375 -0.234375 15.859375 -0.234375 L 15.859375 0 L 14.59375 0 C 13.9375 0 13.320312 -0.117188 12.75 -0.359375 C 12.1875 -0.597656 11.757812 -0.84375 11.46875 -1.09375 C 11.1875 -1.34375 10.941406 -1.585938 10.734375 -1.828125 C 10.523438 -2.066406 9.953125 -2.863281 9.015625 -4.21875 C 8.078125 -5.570312 7.53125 -6.34375 7.375 -6.53125 C 7.226562 -6.726562 7.066406 -6.921875 6.890625 -7.109375 C 6.398438 -7.628906 5.910156 -7.890625 5.421875 -7.890625 L 5.421875 -8.125 C 5.546875 -8.101562 5.707031 -8.09375 5.90625 -8.09375 C 6.101562 -8.09375 6.347656 -8.101562 6.640625 -8.125 C 8.546875 -8.164062 9.742188 -8.960938 10.234375 -10.515625 C 10.328125 -10.828125 10.375 -11.113281 10.375 -11.375 C 10.375 -11.644531 10.375 -11.820312 10.375 -11.90625 C 10.34375 -12.9375 10.070312 -13.765625 9.5625 -14.390625 C 9.0625 -15.023438 8.378906 -15.363281 7.515625 -15.40625 C 7.148438 -15.414062 6.691406 -15.421875 6.140625 -15.421875 Z M 6.140625 -15.421875 "/></g></g></g><g fill="#000000" fill-opacity="1"><g transform="translate(34.089625, 38.250002)"><g><path d="M 13.578125 -14.09375 C 13.578125 -14.457031 13.445312 -14.773438 13.1875 -15.046875 C 12.925781 -15.316406 12.617188 -15.457031 12.265625 -15.46875 L 7.890625 -15.46875 L 7.890625 -1.65625 C 7.898438 -1.257812 8.046875 -0.921875 8.328125 -0.640625 C 8.617188 -0.367188 8.960938 -0.234375 9.359375 -0.234375 L 9.65625 -0.234375 L 9.65625 0 L 4.609375 0 L 4.609375 -0.234375 L 4.90625 -0.234375 C 5.3125 -0.234375 5.65625 -0.367188 5.9375 -0.640625 C 6.21875 -0.921875 6.367188 -1.253906 6.390625 -1.640625 L 6.390625 -15.46875 L 2 -15.46875 C 1.632812 -15.457031 1.320312 -15.316406 1.0625 -15.046875 C 0.8125 -14.773438 0.6875 -14.457031 0.6875 -14.09375 L 0.6875 -13.703125 L 0.46875 -13.671875 L 0.46875 -16.578125 C 0.695312 -16.484375 1.09375 -16.390625 1.65625 -16.296875 C 2.226562 -16.210938 2.753906 -16.171875 3.234375 -16.171875 L 11.03125 -16.171875 C 11.78125 -16.171875 12.40625 -16.226562 12.90625 -16.34375 C 13.40625 -16.457031 13.707031 -16.535156 13.8125 -16.578125 L 13.8125 -13.671875 L 13.578125 -13.703125 Z M 13.578125 -14.09375 "/></g></g></g><g fill="#000000" fill-opacity="1"><g transform="translate(48.789048, 38.250002)"><g/></g></g><g fill="#000000" fill-opacity="1"><g transform="translate(55.010067, 38.250002)"><g><path d="M 1.40625 -0.953125 C 1.363281 -1.160156 1.34375 -1.570312 1.34375 -2.1875 C 1.34375 -2.800781 1.457031 -3.457031 1.6875 -4.15625 L 1.890625 -4.15625 C 1.878906 -3.976562 1.875 -3.804688 1.875 -3.640625 C 1.875 -2.703125 2.15625 -1.921875 2.71875 -1.296875 C 3.289062 -0.679688 4.046875 -0.375 4.984375 -0.375 C 5.953125 -0.375 6.742188 -0.664062 7.359375 -1.25 C 7.984375 -1.832031 8.296875 -2.566406 8.296875 -3.453125 C 8.296875 -4.335938 8 -5.054688 7.40625 -5.609375 L 2.96875 -9.703125 C 2.144531 -10.472656 1.734375 -11.40625 1.734375 -12.5 C 1.734375 -13.59375 2.097656 -14.523438 2.828125 -15.296875 C 3.554688 -16.078125 4.539062 -16.46875 5.78125 -16.46875 C 6.375 -16.46875 7.035156 -16.390625 7.765625 -16.234375 L 8.671875 -16.234375 L 8.671875 -13.40625 L 8.46875 -13.40625 C 8.46875 -14.125 8.21875 -14.695312 7.71875 -15.125 C 7.21875 -15.5625 6.570312 -15.78125 5.78125 -15.78125 C 5 -15.78125 4.34375 -15.515625 3.8125 -14.984375 C 3.28125 -14.460938 3.015625 -13.8125 3.015625 -13.03125 C 3.015625 -12.25 3.320312 -11.570312 3.9375 -11 L 8.484375 -6.796875 C 9.253906 -6.097656 9.640625 -5.128906 9.640625 -3.890625 C 9.640625 -2.660156 9.242188 -1.648438 8.453125 -0.859375 C 7.671875 -0.0664062 6.628906 0.328125 5.328125 0.328125 C 4.648438 0.328125 3.929688 0.222656 3.171875 0.015625 C 2.410156 -0.191406 1.820312 -0.515625 1.40625 -0.953125 Z M 1.40625 -0.953125 "/></g></g></g><g fill="#000000" fill-opacity="1"><g transform="translate(66.414894, 38.250002)"><g><path d="M 12.609375 -0.234375 C 13.015625 -0.234375 13.359375 -0.367188 13.640625 -0.640625 C 13.921875 -0.921875 14.070312 -1.257812 14.09375 -1.65625 L 14.09375 -7.640625 L 4.65625 -7.640625 L 4.65625 -1.6875 C 4.65625 -1.28125 4.800781 -0.9375 5.09375 -0.65625 C 5.382812 -0.375 5.734375 -0.234375 6.140625 -0.234375 L 6.4375 -0.234375 L 6.4375 0 L 1.390625 0 L 1.390625 -0.234375 L 1.6875 -0.234375 C 2.082031 -0.234375 2.421875 -0.375 2.703125 -0.65625 C 2.992188 -0.9375 3.144531 -1.28125 3.15625 -1.6875 L 3.15625 -14.484375 C 3.144531 -14.878906 2.992188 -15.210938 2.703125 -15.484375 C 2.421875 -15.765625 2.082031 -15.90625 1.6875 -15.90625 L 1.390625 -15.90625 L 1.390625 -16.140625 L 6.4375 -16.140625 L 6.4375 -15.90625 L 6.140625 -15.90625 C 5.734375 -15.90625 5.390625 -15.765625 5.109375 -15.484375 C 4.828125 -15.210938 4.675781 -14.878906 4.65625 -14.484375 L 4.65625 -8.328125 L 14.09375 -8.328125 L 14.09375 -14.484375 C 14.070312 -15.035156 13.828125 -15.453125 13.359375 -15.734375 C 13.117188 -15.847656 12.867188 -15.90625 12.609375 -15.90625 L 12.3125 -15.90625 L 12.3125 -16.140625 L 17.359375 -16.140625 L 17.359375 -15.90625 L 17.0625 -15.90625 C 16.664062 -15.90625 16.320312 -15.765625 16.03125 -15.484375 C 15.75 -15.203125 15.601562 -14.859375 15.59375 -14.453125 L 15.59375 -1.6875 C 15.601562 -1.28125 15.75 -0.9375 16.03125 -0.65625 C 16.320312 -0.375 16.664062 -0.234375 17.0625 -0.234375 L 17.359375 -0.234375 L 17.359375 0 L 12.3125 0 L 12.3125 -0.234375 Z M 12.609375 -0.234375 "/></g></g></g><g fill="#000000" fill-opacity="1"><g transform="translate(85.606944, 38.250002)"><g><path d="M 3.90625 -14.140625 C 5.4375 -15.691406 7.429688 -16.46875 9.890625 -16.46875 C 12.347656 -16.46875 14.347656 -15.691406 15.890625 -14.140625 C 17.429688 -12.597656 18.203125 -10.570312 18.203125 -8.0625 C 18.203125 -5.5625 17.429688 -3.535156 15.890625 -1.984375 C 14.347656 -0.441406 12.347656 0.328125 9.890625 0.328125 C 7.429688 0.328125 5.4375 -0.441406 3.90625 -1.984375 C 2.375 -3.535156 1.609375 -5.5625 1.609375 -8.0625 C 1.609375 -10.570312 2.375 -12.597656 3.90625 -14.140625 Z M 5.171875 -2.484375 C 6.367188 -1.078125 7.945312 -0.375 9.90625 -0.375 C 11.863281 -0.375 13.4375 -1.078125 14.625 -2.484375 C 15.820312 -3.898438 16.421875 -5.765625 16.421875 -8.078125 C 16.421875 -9.597656 16.148438 -10.941406 15.609375 -12.109375 C 15.078125 -13.273438 14.3125 -14.175781 13.3125 -14.8125 C 12.320312 -15.457031 11.179688 -15.78125 9.890625 -15.78125 C 7.941406 -15.78125 6.367188 -15.070312 5.171875 -13.65625 C 3.984375 -12.238281 3.390625 -10.375 3.390625 -8.0625 C 3.390625 -5.757812 3.984375 -3.898438 5.171875 -2.484375 Z M 5.171875 -2.484375 "/></g></g></g><g fill="#000000" fill-opacity="1"><g transform="translate(105.374981, 38.250002)"><g><path d="M 12.15625 -11.6875 C 12.15625 -11.007812 12.015625 -10.378906 11.734375 -9.796875 C 11.234375 -8.710938 10.34375 -7.953125 9.0625 -7.515625 C 8.613281 -7.359375 8.226562 -7.28125 7.90625 -7.28125 C 6.957031 -7.28125 6.132812 -7.457031 5.4375 -7.8125 L 5.4375 -8.046875 C 6.5625 -7.804688 7.601562 -7.929688 8.5625 -8.421875 C 9.40625 -8.847656 9.976562 -9.554688 10.28125 -10.546875 C 10.375 -10.847656 10.421875 -11.132812 10.421875 -11.40625 C 10.421875 -11.6875 10.421875 -11.859375 10.421875 -11.921875 C 10.390625 -12.992188 10.101562 -13.847656 9.5625 -14.484375 C 9.03125 -15.128906 8.28125 -15.453125 7.3125 -15.453125 L 4.65625 -15.453125 L 4.65625 -1.6875 C 4.675781 -1.28125 4.828125 -0.9375 5.109375 -0.65625 C 5.390625 -0.375 5.734375 -0.234375 6.140625 -0.234375 L 6.4375 -0.234375 L 6.4375 0 L 1.390625 0 L 1.390625 -0.234375 L 1.6875 -0.234375 C 2.082031 -0.234375 2.421875 -0.375 2.703125 -0.65625 C 2.992188 -0.9375 3.144531 -1.28125 3.15625 -1.6875 L 3.15625 -14.578125 C 3.113281 -14.960938 2.953125 -15.28125 2.671875 -15.53125 C 2.398438 -15.78125 2.070312 -15.90625 1.6875 -15.90625 L 1.40625 -15.90625 L 1.390625 -16.140625 L 7.40625 -16.140625 C 8.875 -16.140625 10.03125 -15.742188 10.875 -14.953125 C 11.726562 -14.160156 12.15625 -13.070312 12.15625 -11.6875 Z M 12.15625 -11.6875 "/></g></g></g></svg>