<svg xmlns="http://www.w3.org/2000/svg" xmlns:xlink="http://www.w3.org/1999/xlink" width="80" zoomAndPan="magnify" viewBox="0 0 60 30.000001" height="40" preserveAspectRatio="xMidYMid meet" version="1.0"><defs><g/></defs><g fill="#000000" fill-opacity="1"><g transform="translate(1.531835, 18.508067)"><g><path d="M 8 -0.109375 L 8.078125 -0.109375 L 8.078125 0 L 5.578125 0 L 5.578125 -0.109375 L 5.671875 -0.109375 C 5.828125 -0.109375 5.941406 -0.15625 6.015625 -0.25 C 6.097656 -0.351562 6.140625 -0.453125 6.140625 -0.546875 C 6.140625 -0.640625 6.125 -0.726562 6.09375 -0.8125 L 5.375 -2.71875 L 2.375 -2.71875 L 1.625 -0.796875 C 1.59375 -0.710938 1.578125 -0.625 1.578125 -0.53125 C 1.578125 -0.445312 1.613281 -0.351562 1.6875 -0.25 C 1.769531 -0.15625 1.890625 -0.109375 2.046875 -0.109375 L 2.140625 -0.109375 L 2.140625 0 L -0.09375 0 L -0.09375 -0.109375 L 0 -0.109375 C 0.1875 -0.109375 0.367188 -0.164062 0.546875 -0.28125 C 0.722656 -0.40625 0.867188 -0.582031 0.984375 -0.8125 L 3.5 -6.8125 C 3.78125 -7.414062 3.921875 -7.800781 3.921875 -7.96875 L 4.015625 -7.96875 L 7.015625 -0.8125 C 7.117188 -0.582031 7.257812 -0.40625 7.4375 -0.28125 C 7.613281 -0.164062 7.800781 -0.109375 8 -0.109375 Z M 2.5 -3.046875 L 5.25 -3.046875 L 3.90625 -6.625 Z M 2.5 -3.046875 "/></g></g></g><g fill="#000000" fill-opacity="1"><g transform="translate(9.692369, 18.508067)"><g><path d="M 2.96875 -7.46875 L 2.25 -7.46875 L 2.25 -0.8125 C 2.25 -0.625 2.316406 -0.457031 2.453125 -0.3125 C 2.597656 -0.175781 2.769531 -0.109375 2.96875 -0.109375 L 3.09375 -0.109375 L 3.109375 0 L 0.671875 0 L 0.671875 -0.109375 L 0.8125 -0.109375 C 1.007812 -0.109375 1.175781 -0.175781 1.3125 -0.3125 C 1.445312 -0.445312 1.519531 -0.609375 1.53125 -0.796875 L 1.53125 -7 C 1.519531 -7.1875 1.445312 -7.347656 1.3125 -7.484375 C 1.175781 -7.628906 1.007812 -7.703125 0.8125 -7.703125 L 0.671875 -7.703125 L 0.671875 -7.8125 L 3.6875 -7.8125 C 4.363281 -7.8125 4.894531 -7.625 5.28125 -7.25 C 5.664062 -6.875 5.859375 -6.382812 5.859375 -5.78125 C 5.859375 -5.1875 5.671875 -4.671875 5.296875 -4.234375 C 4.929688 -3.796875 4.484375 -3.578125 3.953125 -3.578125 C 4.066406 -3.523438 4.195312 -3.421875 4.34375 -3.265625 C 4.5 -3.117188 4.640625 -2.960938 4.765625 -2.796875 C 5.398438 -1.878906 5.8125 -1.316406 6 -1.109375 C 6.195312 -0.898438 6.335938 -0.753906 6.421875 -0.671875 C 6.503906 -0.597656 6.59375 -0.519531 6.6875 -0.4375 C 6.789062 -0.363281 6.890625 -0.304688 6.984375 -0.265625 C 7.203125 -0.160156 7.429688 -0.109375 7.671875 -0.109375 L 7.671875 0 L 7.0625 0 C 6.738281 0 6.4375 -0.0546875 6.15625 -0.171875 C 5.882812 -0.285156 5.679688 -0.40625 5.546875 -0.53125 C 5.410156 -0.65625 5.289062 -0.773438 5.1875 -0.890625 C 5.09375 -1.003906 4.816406 -1.382812 4.359375 -2.03125 C 3.910156 -2.6875 3.644531 -3.0625 3.5625 -3.15625 C 3.488281 -3.25 3.410156 -3.34375 3.328125 -3.4375 C 3.097656 -3.6875 2.863281 -3.8125 2.625 -3.8125 L 2.625 -3.921875 C 2.6875 -3.921875 2.765625 -3.921875 2.859375 -3.921875 C 2.953125 -3.921875 3.070312 -3.921875 3.21875 -3.921875 C 4.132812 -3.941406 4.710938 -4.332031 4.953125 -5.09375 C 4.992188 -5.238281 5.015625 -5.375 5.015625 -5.5 C 5.015625 -5.632812 5.015625 -5.71875 5.015625 -5.75 C 5.003906 -6.25 4.875 -6.648438 4.625 -6.953125 C 4.382812 -7.265625 4.054688 -7.429688 3.640625 -7.453125 C 3.460938 -7.460938 3.238281 -7.46875 2.96875 -7.46875 Z M 2.96875 -7.46875 "/></g></g></g><g fill="#000000" fill-opacity="1"><g transform="translate(17.462721, 18.508067)"><g><path d="M 6.578125 -6.8125 C 6.578125 -6.988281 6.507812 -7.140625 6.375 -7.265625 C 6.25 -7.398438 6.101562 -7.472656 5.9375 -7.484375 L 3.8125 -7.484375 L 3.8125 -0.796875 C 3.820312 -0.609375 3.894531 -0.445312 4.03125 -0.3125 C 4.164062 -0.175781 4.332031 -0.109375 4.53125 -0.109375 L 4.671875 -0.109375 L 4.671875 0 L 2.234375 0 L 2.234375 -0.109375 L 2.375 -0.109375 C 2.570312 -0.109375 2.738281 -0.175781 2.875 -0.3125 C 3.007812 -0.445312 3.082031 -0.609375 3.09375 -0.796875 L 3.09375 -7.484375 L 0.96875 -7.484375 C 0.789062 -7.472656 0.640625 -7.398438 0.515625 -7.265625 C 0.390625 -7.140625 0.328125 -6.988281 0.328125 -6.8125 L 0.328125 -6.625 L 0.21875 -6.609375 L 0.21875 -8.015625 C 0.332031 -7.972656 0.523438 -7.929688 0.796875 -7.890625 C 1.078125 -7.847656 1.332031 -7.828125 1.5625 -7.828125 L 5.328125 -7.828125 C 5.691406 -7.828125 5.992188 -7.851562 6.234375 -7.90625 C 6.484375 -7.957031 6.632812 -7.992188 6.6875 -8.015625 L 6.6875 -6.609375 L 6.578125 -6.625 Z M 6.578125 -6.8125 "/></g></g></g><g fill="#000000" fill-opacity="1"><g transform="translate(24.575346, 18.508067)"><g/></g></g><g fill="#000000" fill-opacity="1"><g transform="translate(27.585516, 18.508067)"><g><path d="M 0.6875 -0.453125 C 0.65625 -0.554688 0.640625 -0.753906 0.640625 -1.046875 C 0.640625 -1.347656 0.695312 -1.671875 0.8125 -2.015625 L 0.921875 -2.015625 C 0.910156 -1.929688 0.90625 -1.847656 0.90625 -1.765625 C 0.90625 -1.304688 1.039062 -0.925781 1.3125 -0.625 C 1.59375 -0.320312 1.957031 -0.171875 2.40625 -0.171875 C 2.875 -0.171875 3.257812 -0.3125 3.5625 -0.59375 C 3.863281 -0.882812 4.015625 -1.242188 4.015625 -1.671875 C 4.015625 -2.097656 3.867188 -2.445312 3.578125 -2.71875 L 1.4375 -4.703125 C 1.039062 -5.066406 0.84375 -5.515625 0.84375 -6.046875 C 0.84375 -6.578125 1.015625 -7.03125 1.359375 -7.40625 C 1.710938 -7.78125 2.191406 -7.96875 2.796875 -7.96875 C 3.078125 -7.96875 3.398438 -7.929688 3.765625 -7.859375 L 4.1875 -7.859375 L 4.1875 -6.484375 L 4.09375 -6.484375 C 4.09375 -6.828125 3.972656 -7.101562 3.734375 -7.3125 C 3.492188 -7.519531 3.179688 -7.625 2.796875 -7.625 C 2.421875 -7.625 2.101562 -7.5 1.84375 -7.25 C 1.59375 -7 1.46875 -6.679688 1.46875 -6.296875 C 1.46875 -5.921875 1.613281 -5.597656 1.90625 -5.328125 L 4.109375 -3.296875 C 4.472656 -2.953125 4.65625 -2.484375 4.65625 -1.890625 C 4.65625 -1.296875 4.46875 -0.804688 4.09375 -0.421875 C 3.71875 -0.0351562 3.210938 0.15625 2.578125 0.15625 C 2.253906 0.15625 1.90625 0.101562 1.53125 0 C 1.164062 -0.09375 0.882812 -0.242188 0.6875 -0.453125 Z M 0.6875 -0.453125 "/></g></g></g><g fill="#000000" fill-opacity="1"><g transform="translate(33.103981, 18.508067)"><g><path d="M 6.109375 -0.109375 C 6.296875 -0.109375 6.457031 -0.175781 6.59375 -0.3125 C 6.738281 -0.445312 6.8125 -0.609375 6.8125 -0.796875 L 6.8125 -3.6875 L 2.25 -3.6875 L 2.25 -0.8125 C 2.25 -0.625 2.316406 -0.457031 2.453125 -0.3125 C 2.597656 -0.175781 2.769531 -0.109375 2.96875 -0.109375 L 3.109375 -0.109375 L 3.109375 0 L 0.671875 0 L 0.671875 -0.109375 L 0.8125 -0.109375 C 1.007812 -0.109375 1.175781 -0.175781 1.3125 -0.3125 C 1.445312 -0.457031 1.519531 -0.625 1.53125 -0.8125 L 1.53125 -7 C 1.519531 -7.195312 1.445312 -7.363281 1.3125 -7.5 C 1.175781 -7.632812 1.007812 -7.703125 0.8125 -7.703125 L 0.671875 -7.703125 L 0.671875 -7.8125 L 3.109375 -7.8125 L 3.109375 -7.703125 L 2.96875 -7.703125 C 2.769531 -7.703125 2.601562 -7.632812 2.46875 -7.5 C 2.332031 -7.363281 2.257812 -7.195312 2.25 -7 L 2.25 -4.03125 L 6.8125 -4.03125 L 6.8125 -7 C 6.8125 -7.269531 6.691406 -7.472656 6.453125 -7.609375 C 6.347656 -7.671875 6.234375 -7.703125 6.109375 -7.703125 L 5.953125 -7.703125 L 5.953125 -7.8125 L 8.40625 -7.8125 L 8.40625 -7.703125 L 8.25 -7.703125 C 8.0625 -7.703125 7.894531 -7.628906 7.75 -7.484375 C 7.613281 -7.347656 7.546875 -7.1875 7.546875 -7 L 7.546875 -0.8125 C 7.546875 -0.625 7.613281 -0.457031 7.75 -0.3125 C 7.894531 -0.175781 8.0625 -0.109375 8.25 -0.109375 L 8.40625 -0.109375 L 8.40625 0 L 5.953125 0 L 5.953125 -0.109375 Z M 6.109375 -0.109375 "/></g></g></g><g fill="#000000" fill-opacity="1"><g transform="translate(42.390457, 18.508067)"><g><path d="M 1.890625 -6.84375 C 2.628906 -7.59375 3.59375 -7.96875 4.78125 -7.96875 C 5.976562 -7.96875 6.945312 -7.59375 7.6875 -6.84375 C 8.425781 -6.09375 8.796875 -5.113281 8.796875 -3.90625 C 8.796875 -2.695312 8.425781 -1.71875 7.6875 -0.96875 C 6.945312 -0.21875 5.976562 0.15625 4.78125 0.15625 C 3.59375 0.15625 2.628906 -0.21875 1.890625 -0.96875 C 1.148438 -1.71875 0.78125 -2.695312 0.78125 -3.90625 C 0.78125 -5.113281 1.148438 -6.09375 1.890625 -6.84375 Z M 2.5 -1.203125 C 3.082031 -0.515625 3.847656 -0.171875 4.796875 -0.171875 C 5.742188 -0.171875 6.503906 -0.515625 7.078125 -1.203125 C 7.648438 -1.890625 7.9375 -2.789062 7.9375 -3.90625 C 7.9375 -4.644531 7.804688 -5.296875 7.546875 -5.859375 C 7.285156 -6.421875 6.914062 -6.851562 6.4375 -7.15625 C 5.957031 -7.46875 5.40625 -7.625 4.78125 -7.625 C 3.84375 -7.625 3.082031 -7.28125 2.5 -6.59375 C 1.925781 -5.914062 1.640625 -5.019531 1.640625 -3.90625 C 1.640625 -2.789062 1.925781 -1.890625 2.5 -1.203125 Z M 2.5 -1.203125 "/></g></g></g><g fill="#000000" fill-opacity="1"><g transform="translate(51.955637, 18.508067)"><g><path d="M 5.875 -5.65625 C 5.875 -5.332031 5.804688 -5.023438 5.671875 -4.734375 C 5.429688 -4.210938 5.003906 -3.847656 4.390625 -3.640625 C 4.171875 -3.566406 3.984375 -3.53125 3.828125 -3.53125 C 3.367188 -3.53125 2.972656 -3.613281 2.640625 -3.78125 L 2.640625 -3.890625 C 3.179688 -3.773438 3.679688 -3.835938 4.140625 -4.078125 C 4.546875 -4.285156 4.820312 -4.625 4.96875 -5.09375 C 5.019531 -5.25 5.046875 -5.390625 5.046875 -5.515625 C 5.046875 -5.648438 5.046875 -5.734375 5.046875 -5.765625 C 5.023438 -6.285156 4.882812 -6.695312 4.625 -7 C 4.363281 -7.3125 4 -7.46875 3.53125 -7.46875 L 2.25 -7.46875 L 2.25 -0.8125 C 2.257812 -0.625 2.332031 -0.457031 2.46875 -0.3125 C 2.601562 -0.175781 2.769531 -0.109375 2.96875 -0.109375 L 3.109375 -0.109375 L 3.109375 0 L 0.671875 0 L 0.671875 -0.109375 L 0.8125 -0.109375 C 1.007812 -0.109375 1.175781 -0.175781 1.3125 -0.3125 C 1.445312 -0.457031 1.519531 -0.625 1.53125 -0.8125 L 1.53125 -7.046875 C 1.507812 -7.234375 1.429688 -7.390625 1.296875 -7.515625 C 1.160156 -7.640625 1 -7.703125 0.8125 -7.703125 L 0.6875 -7.703125 L 0.671875 -7.8125 L 3.578125 -7.8125 C 4.296875 -7.8125 4.859375 -7.617188 5.265625 -7.234375 C 5.671875 -6.847656 5.875 -6.320312 5.875 -5.65625 Z M 5.875 -5.65625 "/></g></g></g></svg>