<svg xmlns="http://www.w3.org/2000/svg" xmlns:xlink="http://www.w3.org/1999/xlink" width="80" zoomAndPan="magnify" viewBox="0 0 60 30.000001" height="40" preserveAspectRatio="xMidYMid meet" version="1.0"><defs><g/></defs><g fill="#000000" fill-opacity="1"><g transform="translate(1.315333, 18.643809)"><g><path d="M 2.269531 0 C 2.164062 -0.4375 2.097656 -1.878906 2.144531 -3.460938 L 5.328125 -3.460938 C 5.632812 -2.410156 5.957031 -1.316406 6.359375 0 L 7.816406 0 C 6.835938 -3.25 6.246094 -5.175781 5.28125 -8.351562 C 5.082031 -9.007812 4.699219 -9.628906 4.003906 -9.628906 C 3.308594 -9.628906 2.925781 -9.007812 2.726562 -8.351562 C 1.765625 -5.175781 1.183594 -3.25 0.191406 0 Z M 2.15625 -3.605469 C 2.242188 -6.015625 2.582031 -8.703125 3.441406 -8.703125 C 3.652344 -8.703125 3.757812 -8.5625 3.824219 -8.351562 C 4.40625 -6.519531 4.832031 -5.101562 5.28125 -3.605469 Z M 2.15625 -3.605469 "/></g></g></g><g fill="#000000" fill-opacity="1"><g transform="translate(9.323907, 18.643809)"><g><path d="M 2.050781 0 L 2.050781 -9.390625 L 4.089844 -9.390625 C 5.214844 -9.390625 5.664062 -8.703125 5.664062 -7.808594 C 5.664062 -5.308594 2.785156 -5.195312 2.785156 -4.269531 C 2.785156 -3.660156 4.003906 -1.773438 4.804688 -0.722656 C 5.300781 -0.078125 5.328125 0 5.890625 0 L 7.464844 0 L 7.464844 -0.0585938 C 6.777344 -0.0585938 3.890625 -4.261719 3.890625 -4.917969 C 3.890625 -5.5 7.046875 -5.597656 7.046875 -7.894531 C 7.046875 -8.675781 6.539062 -9.535156 5.5 -9.535156 L 0.667969 -9.535156 L 0.667969 0 Z M 2.050781 0 "/></g></g></g><g fill="#000000" fill-opacity="1"><g transform="translate(16.789042, 18.643809)"><g><path d="M 0.285156 -7.96875 C 0.914062 -8.609375 2.117188 -9.316406 2.972656 -9.382812 L 2.972656 0 L 4.355469 0 L 4.355469 -9.382812 C 5.214844 -9.316406 6.417969 -8.609375 7.046875 -7.96875 L 7.046875 -9.535156 L 0.285156 -9.535156 Z M 0.285156 -7.96875 "/></g></g></g><g fill="#000000" fill-opacity="1"><g transform="translate(24.12069, 18.643809)"><g/></g></g><g fill="#000000" fill-opacity="1"><g transform="translate(27.934294, 18.643809)"><g><path d="M 3.316406 0.09375 C 5.234375 0.09375 7.007812 -1.046875 7.007812 -2.90625 C 7.007812 -4.699219 5.53125 -5.597656 3.382812 -5.75 C 2.296875 -5.824219 0.554688 -5.71875 0.554688 -6.816406 C 0.554688 -7.867188 2.03125 -8.265625 3.421875 -8.265625 C 4.644531 -8.265625 5.910156 -7.941406 6.464844 -7.542969 L 6.855469 -8.992188 C 6.265625 -9.46875 4.984375 -9.628906 4.003906 -9.628906 C 1.257812 -9.628906 0.390625 -8.105469 0.390625 -6.929688 C 0.390625 -5.367188 1.183594 -4.472656 3.59375 -4.0625 C 4.976562 -3.824219 6.828125 -3.777344 6.828125 -2.640625 C 6.828125 -1.441406 5.0625 -1.21875 4.023438 -1.21875 C 2.667969 -1.21875 1.78125 -1.695312 0.761719 -2.328125 L 0.191406 -1 C 0.742188 -0.449219 2.019531 0.09375 3.316406 0.09375 Z M 3.316406 0.09375 "/></g></g></g><g fill="#000000" fill-opacity="1"><g transform="translate(35.132468, 18.643809)"><g><path d="M 0.667969 0 L 2.050781 0 L 2.050781 -4.613281 L 6.035156 -4.613281 L 6.035156 0 L 7.417969 0 L 7.417969 -9.535156 L 6.035156 -9.535156 L 6.035156 -4.765625 L 2.050781 -4.765625 L 2.050781 -9.535156 L 0.667969 -9.535156 Z M 0.667969 0 "/></g></g></g><g fill="#000000" fill-opacity="1"><g transform="translate(43.217308, 18.643809)"><g><path d="M 4.148438 0.09375 C 6.40625 0.09375 7.914062 -1.847656 7.914062 -4.765625 C 7.914062 -7.683594 6.40625 -9.628906 4.148438 -9.628906 C 1.878906 -9.628906 0.382812 -7.683594 0.382812 -4.765625 C 0.382812 -1.847656 1.878906 0.09375 4.148438 0.09375 Z M 1.867188 -4.777344 C 1.867188 -7.609375 2.773438 -9.496094 4.136719 -9.496094 C 5.511719 -9.496094 6.425781 -7.609375 6.425781 -4.777344 C 6.425781 -1.933594 5.511719 -0.046875 4.136719 -0.046875 C 2.773438 -0.046875 1.867188 -1.933594 1.867188 -4.777344 Z M 1.867188 -4.777344 "/></g></g></g><g fill="#000000" fill-opacity="1"><g transform="translate(51.511901, 18.643809)"><g><path d="M 2.050781 0 L 2.050781 -3.851562 L 3.738281 -3.851562 C 5.71875 -3.851562 6.777344 -5.300781 6.777344 -6.691406 C 6.777344 -8.085938 5.804688 -9.535156 4.195312 -9.535156 L 0.667969 -9.535156 L 0.667969 0 Z M 2.859375 -9.410156 C 4.558594 -9.410156 5.394531 -8.027344 5.394531 -6.671875 C 5.394531 -5.347656 4.539062 -3.996094 2.859375 -3.996094 L 2.050781 -3.996094 L 2.050781 -9.410156 Z M 2.859375 -9.410156 "/></g></g></g></svg>